<?xml version="1.0" encoding="UTF-8" standalone="no" ?>
<!DOCTYPE svg PUBLIC "-//W3C//DTD SVG 1.1//EN" "http://www.w3.org/Graphics/SVG/1.1/DTD/svg11.dtd">
<svg xmlns="http://www.w3.org/2000/svg" xmlns:xlink="http://www.w3.org/1999/xlink" version="1.1" width="1080"
     height="1080" viewBox="0 0 1080 1080" xml:space="preserve">
<desc>Created with Fabric.js 5.2.4</desc>
  <defs>
</defs>
  <g transform="matrix(1 0 0 1 540 540)" id="4dc5d898-034c-487d-803b-227e5370bb33">
<rect
  style="stroke: none; stroke-width: 1; stroke-dasharray: none; stroke-linecap: butt; stroke-dashoffset: 0; stroke-linejoin: miter; stroke-miterlimit: 4; fill: rgb(255,255,255); fill-rule: nonzero; opacity: 1; visibility: hidden;"
  vector-effect="non-scaling-stroke" x="-540" y="-540" rx="0" ry="0" width="1080" height="1080"/>
</g>
  <g transform="matrix(1 0 0 1 540 540)" id="6fdfccce-e5b4-4ce6-b342-52d968ab4af1">
</g>
  <g transform="matrix(2.93 0 0 2.93 540 540)" id="Layer_1">
<path
  style=" stroke-width: 1; stroke-dasharray: none; stroke-linecap: butt; stroke-dashoffset: 0; stroke-linejoin: miter; stroke-miterlimit: 4;  fill-rule: nonzero; opacity: 1;"
  transform=" translate(-178.17, -185.18)"
  d="M 204.408 173.583 C 231.982 201.144 259.251 228.508 286.705 255.685 C 290.009 258.955 289.405 260.775 286.483 263.691 C 257.616 292.508 228.837 321.413 200.119 350.379 C 197.396 353.125 195.649 353.193 192.843 350.359 C 164.146 321.371 135.35 292.48 106.479 263.666 C 103.578 260.771 103.466 258.842 106.42 255.904 C 135.223 227.256 163.954 198.534 192.587 169.714 C 195.668 166.613 197.924 166.31 200.642 169.79 C 201.659 171.092 202.978 172.157 204.408 173.583 Z M 189.93 326.559 C 197.32 333.641 195.346 334.407 203.125 326.67 C 223.091 306.809 243.036 286.927 262.936 267 C 265.243 264.69 267.913 262.624 269.064 260.257 C 244.499 235.753 220.251 211.565 197.007 188.379 C 173.105 212.163 148.744 236.403 124.103 260.922 C 145.555 282.312 167.492 304.188 189.93 326.559 Z M 112.253 233.255 C 103.453 241.908 103.421 241.94 94.9 233.446 C 74.026 212.637 53.268 191.71 32.251 171.048 C 28.575 167.434 28.8 165.382 32.347 161.883 C 54.632 139.898 76.695 117.686 98.841 95.559 C 103.428 90.976 103.441 91.002 108.161 95.724 C 130.293 117.865 152.373 140.06 174.623 162.083 C 177.948 165.374 178.248 167.416 174.721 170.892 C 153.852 191.464 133.214 212.272 112.253 233.255 Z M 77.177 195.323 C 84.475 202.619 91.937 209.76 98.995 217.281 C 102.15 220.643 104.123 220.602 107.339 217.325 C 122.844 201.527 138.588 185.964 154.214 170.284 C 155.458 169.036 157.167 168.038 157.332 165.945 C 157.075 165.504 156.906 165.002 156.57 164.665 C 139.759 147.817 122.899 131.018 106.147 114.112 C 103.461 111.401 101.898 113.015 100.02 114.897 C 83.914 131.037 67.828 147.198 51.624 163.239 C 49.149 165.688 49.117 167.345 51.596 169.769 C 60.046 178.029 68.329 186.459 77.177 195.323 Z M 231.396 95.396 C 220.893 105.896 210.549 116.059 200.442 126.451 C 197.547 129.428 195.666 129.397 192.755 126.449 C 176.482 109.965 160.104 93.582 143.588 77.343 C 140.395 74.203 140.651 72.277 143.716 69.255 C 160.089 53.109 176.338 36.834 192.458 20.434 C 195.583 17.254 197.572 16.921 200.886 20.302 C 217.099 36.843 233.505 53.197 249.976 69.484 C 252.726 72.203 252.996 74.08 250.096 76.833 C 243.813 82.798 237.781 89.026 231.396 95.396 Z M 203.916 102.41 C 213.518 92.801 223.119 83.192 232.655 73.648 C 220.915 61.722 209.724 50.339 198.513 38.976 C 196.27 36.703 194.96 38.855 193.618 40.191 C 183.702 50.064 173.903 60.058 163.87 69.81 C 161.013 72.587 161.138 74.412 163.917 77.104 C 172.293 85.215 180.41 93.593 188.721 101.773 C 191.283 104.294 193.462 107.291 197.866 109.803 C 199.67 107.566 201.546 105.239 203.916 102.41 Z M 271.138 147.138 C 276.45 141.824 281.595 136.838 286.538 131.66 C 288.832 129.257 290.552 128.864 293.094 131.45 C 303.6 142.138 314.222 152.714 324.916 163.214 C 327.394 165.646 327.346 167.401 324.896 169.812 C 314.094 180.44 303.392 191.17 292.723 201.933 C 290.62 204.055 289.003 204.049 286.89 201.91 C 276.122 191.012 265.292 180.174 254.401 169.398 C 252.185 167.205 252.498 165.629 254.6 163.599 C 260.11 158.279 265.469 152.803 271.138 147.138 Z M 286.087 152.65 C 281.567 157.212 277.047 161.774 271.939 166.929 C 277.631 172.402 282.785 177.349 287.925 182.309 C 289.207 183.546 290.44 183.791 291.806 182.415 C 296.385 177.804 300.997 173.227 305.574 168.615 C 306.826 167.354 306.93 166 305.627 164.671 C 300.535 159.477 295.442 154.284 290.283 149.023 C 288.584 150.467 287.581 151.32 286.087 152.65 Z M 168.698 230.698 C 177.07 222.327 185.261 214.273 193.265 206.038 C 195.613 203.621 197.18 203.304 199.732 205.879 C 216.486 222.789 233.352 239.589 250.268 256.336 C 252.698 258.741 252.816 260.463 250.327 262.932 C 233.426 279.692 216.599 296.527 199.836 313.426 C 197.43 315.852 195.786 315.96 193.291 313.448 C 176.635 296.677 159.875 280.009 143.071 263.386 C 140.528 260.87 140.298 258.937 142.977 256.324 C 151.555 247.955 159.969 239.418 168.698 230.698 Z M 196.578 224.466 C 184.378 234.544 173.882 246.363 162.778 257.562 C 160.631 259.727 161.867 261.328 163.567 263.018 C 173.597 272.989 183.573 283.014 193.6 292.989 C 194.501 293.887 195.27 295.129 195.535 295.118 C 208.019 282.598 219.817 270.765 231.968 258.578 C 220.544 247.678 209.588 235.403 196.578 224.466 Z M 124.192 148.809 C 129.148 153.766 133.788 158.541 138.59 163.148 C 140.855 165.321 141.082 166.989 138.701 169.331 C 127.785 180.065 116.956 190.888 106.207 201.789 C 103.852 204.178 102.228 203.833 100.039 201.613 C 89.522 190.951 78.937 180.354 68.27 169.842 C 65.811 167.419 65.849 165.633 68.295 163.221 C 78.957 152.705 89.556 142.122 100.031 131.419 C 102.703 128.689 104.548 129.041 107.011 131.607 C 112.54 137.367 118.286 142.92 124.192 148.809 Z M 115.511 172.04 C 121.611 165.805 121.639 167.178 115.595 161.115 C 112.428 157.938 109.173 154.844 106.113 151.566 C 104.187 149.502 102.542 149.577 100.671 151.501 C 97.777 154.477 94.776 157.351 91.927 160.369 C 85.979 166.67 85.945 166.762 92.087 172.661 C 95.776 176.204 98.852 182.509 103.327 182.549 C 108.138 182.592 111.031 175.968 115.511 172.04 Z M 191.213 59.167 C 196.656 53.73 196.657 53.728 201.892 58.951 C 205.651 62.701 209.295 66.576 213.201 70.166 C 215.823 72.574 215.592 74.332 213.092 76.663 C 208.606 80.848 204.296 85.231 200.049 89.661 C 197.773 92.035 195.861 92.427 193.411 89.859 C 189.06 85.299 184.577 80.858 180.029 76.494 C 177.739 74.298 177.648 72.538 180.032 70.311 C 183.788 66.803 187.328 63.062 191.213 59.167 Z M 194.927 241.851 C 197.124 240.458 198.343 241.736 199.529 242.913 C 204.133 247.481 208.663 252.125 213.316 256.642 C 215.402 258.667 215.625 260.392 213.442 262.516 C 208.556 267.271 203.753 272.113 198.985 276.988 C 197.152 278.861 195.648 278.605 193.928 276.848 C 189.275 272.095 184.602 267.358 179.827 262.727 C 177.429 260.4 177.914 258.564 180.106 256.451 C 185.013 251.72 189.802 246.864 194.927 241.851 Z"
  stroke-linecap="round"/>
</g>
</svg>
